<svg width="9" height="15" viewBox="0 0 9 15" fill="none" xmlns="http://www.w3.org/2000/svg">
<path d="M0.818288 12.3396L5.82474 7.33317L0.818289 2.32414C0.6069 2.0773 0.496441 1.75978 0.508984 1.43504C0.521527 1.1103 0.65615 0.802245 0.885949 0.572446C1.11575 0.342647 1.4238 0.208024 1.74854 0.195481C2.07329 0.182937 2.3908 0.293397 2.63764 0.504786L8.56022 6.43124C8.80055 6.673 8.93544 7.00003 8.93544 7.34092C8.93544 7.6818 8.80055 8.00883 8.56022 8.25059L2.63764 14.1732C2.39588 14.4135 2.06885 14.5484 1.72796 14.5484C1.38708 14.5484 1.06005 14.4135 0.818288 14.1732C0.578931 13.928 0.444937 13.599 0.444937 13.2564C0.444937 12.9138 0.578931 12.5848 0.818288 12.3396Z" fill="#555E77"/>
</svg>
