<svg width="10" height="15" viewBox="0 0 10 15" fill="none" xmlns="http://www.w3.org/2000/svg">
<path  d="M8.89129 2.66038L3.88484 7.66683L8.89129 12.6759C9.10268 12.9227 9.21314 13.2402 9.2006 13.565C9.18805 13.8897 9.05343 14.1978 8.82363 14.4276C8.59383 14.6574 8.28578 14.792 7.96104 14.8045C7.63629 14.8171 7.31878 14.7066 7.07194 14.4952L1.14936 8.56876C0.909032 8.327 0.774139 7.99997 0.774139 7.65908C0.774139 7.3182 0.909032 6.99117 1.14936 6.74941L7.07194 0.826827C7.31369 0.586503 7.64073 0.451612 7.98161 0.451612C8.3225 0.451612 8.64953 0.586503 8.89129 0.826827C9.13065 1.07196 9.26464 1.40099 9.26464 1.7436C9.26464 2.08621 9.13065 2.41524 8.89129 2.66038Z" fill="#555E77"/>
</svg>
